#!OML:ASF F:\VICON\USERDATA\Patient Classification 1\PLAYGROUND\JustinFriday\JustinFriday.ASF
:FULLY-SPECIFIED
:DEGREES
3830
root 29.1061 29.8051 -9.31199 -332.687 -80.073 1.82443
lowerback 31.0765 0.267702 0.035188
upperback 12.9219 -0.657488 3.19509
thorax -2.32738 -0.891395 3.75119
lowerneck 7.27977 -3.81201 -7.66365
upperneck 15.0092 -6.58094 7.72644
head 3.78859 -3.45106 3.55083
rclavicle -3.79679e-014 -2.32578e-014
rhumerus -1.32016 14.0377 -66.4088
rradius 90.06
rwrist 19.5767
rhand -36.188 -0.864813
rfingers 7.12502
rthumb -9.29125 -30.6401
lclavicle -3.79679e-014 -2.32578e-014
lhumerus 5.44405 -19.4592 78.99
lradius 89.0252
lwrist -37.2101
lhand -9.14211 -22.9872
lfingers 7.12502
lthumb 16.8096 6.30521
rfemur -26.223 -2.50926 24.0194
rtibia 28.9827
rfoot 4.83127 -15.0911
rtoes 20.2487
lfemur -52.8401 11.4219 -22.6165
ltibia 67.0855
lfoot -31.0108 -21.94
ltoes 15.7251
3831
root 29.1778 29.7558 -9.31716 -335.997 -79.5687 4.51181
lowerback 31.4459 -0.207878 0.738929
upperback 13.2518 -1.13064 2.5263
thorax -2.10818 -1.08541 2.75233
lowerneck 7.10634 -3.94792 -6.96132
upperneck 15.297 -6.79464 8.14153
head 3.90664 -3.49965 3.55438
rclavicle 1.25234e-014 -3.18055e-015
rhumerus -0.727328 13.3681 -67.3238
rradius 89.9819
rwrist 19.8315
rhand -36.0705 -0.966752
rfingers 7.12502
rthumb -9.17781 -30.747
lclavicle 1.25234e-014 -3.18055e-015
lhumerus 6.36511 -19.7136 77.9581
lradius 89.7094
lwrist -37.2655
lhand -8.13869 -22.4467
lfingers 7.12502
lthumb 17.7754 6.76089
rfemur -25.2028 -2.6854 23.4805
rtibia 27.6387
rfoot 5.00489 -15.4257
rtoes 20.1932
lfemur -52.7655 10.5838 -22.85
ltibia 67.8607
lfoot -31.4895 -21.7234
ltoes 16.0254
3832
root 29.251 29.6991 -9.35228 -335.818 -79.5777 4.47696
lowerback 31.3152 0.198611 0.130953
upperback 13.1173 -0.754904 2.81432
thorax -2.21145 -0.928285 3.30423
lowerneck 7.25215 -4.09577 -6.34444
upperneck 15.5687 -6.96785 7.82531
head 3.95091 -3.56524 3.35287
rclavicle 2.84262e-014 4.4329e-014
rhumerus -0.670802 12.9723 -66.652
rradius 90.3178
rwrist 19.4445
rhand -35.6985 -0.745713
rfingers 7.12502
rthumb -8.81886 -30.5414
lclavicle 2.84262e-014 4.4329e-014
lhumerus 6.52351 -20.8741 78.2591
lradius 91.3517
lwrist -39.5847
lhand -6.34828 -16.2903
lfingers 7.12502
lthumb 19.4975 12.7521
rfemur -25.12 -2.16219 23.4763
rtibia 26.4684
rfoot 5.07097 -15.6971
rtoes 20.8368
lfemur -53.7158 11.0928 -22.9346
ltibia 68.7295
lfoot -31.7849 -22.3669
ltoes 16.0944
3833
root 29.3304 29.6379 -9.38397 -335.749 -79.3471 4.37067
lowerback 31.152 0.253673 -0.159225
upperback 13.1623 -0.759448 2.93266
thorax -2.08257 -0.947128 3.59996
lowerneck 7.00941 -3.96853 -6.68654
upperneck 16.2567 -6.93064 8.3016
head 4.21936 -3.54343 3.55141
rclavicle 3.598e-014 3.17062e-014
rhumerus -0.334892 12.8503 -66.2351
rradius 90.8024
rwrist 19.0311
rhand -35.2163 -0.618721
rfingers 7.12502
rthumb -8.35348 -30.4335
lclavicle 3.598e-014 3.17062e-014
lhumerus 7.28311 -19.4325 78.5476
lradius 90.1807
lwrist -36.8711
lhand -7.43787 -22.9913
lfingers 7.12502
lthumb 18.4497 6.15379
rfemur -24.896 -1.74351 23.4854
rtibia 25.4168
rfoot 5.40479 -15.811
rtoes 20.0663
lfemur -54.4581 11.1104 -22.821
ltibia 69.5993
lfoot -32.126 -22.6983
ltoes 15.5865
3834
root 29.4058 29.5728 -9.40723 -336.207 -79.0935 4.65695
lowerback 31.1218 0.194831 -0.666852
upperback 13.2583 -0.965516 3.19032
thorax -1.93014 -1.08432 4.24373
lowerneck 6.29847 -3.65719 -8.01107
upperneck 17.5739 -6.77306 9.17713
head 4.78902 -3.49239 4.03759
rclavicle 1.72943e-014 -9.54166e-015
rhumerus 0.474097 12.9204 -65.9586
rradius 91.1427
rwrist 18.7432
rhand -34.2912 -0.0488809
rfingers 7.12502
rthumb -7.46069 -29.8973
lclavicle 1.72943e-014 -9.54166e-015
lhumerus 7.6751 -18.5944 78.8594
lradius 90.9628
lwrist -37.5547
lhand -5.88645 -21.6942
lfingers 7.12502
lthumb 19.9415 7.30264
rfemur -24.4906 -1.37955 23.3664
rtibia 24.436
rfoot 6.12403 -15.6783
rtoes 17.7991
lfemur -55.1207 11.2748 -22.8857
ltibia 70.5491
lfoot -32.4854 -23.0256
ltoes 14.9423
3835
root 29.4793 29.5126 -9.42644 -337.223 -78.7809 5.41265
lowerback 31.187 0.104548 -0.735422
upperback 13.4384 -1.11999 3.13248
thorax -1.73958 -1.17159 4.26488
lowerneck 6.75391 -3.84204 -6.81547
upperneck 16.6983 -6.78022 8.13772
head 4.38351 -3.4793 3.51828
rclavicle 1.51076e-014 -1.82882e-014
rhumerus 1.10433 12.1138 -66.2062
rradius 91.6249
rwrist 18.5125
rhand -32.9748 0.877864
rfingers 7.12502
rthumb -6.18991 -29.0117
lclavicle 1.51076e-014 -1.82882e-014
lhumerus 8.42252 -18.5468 78.5369
lradius 91.71
lwrist -37.4407
lhand -4.80398 -20.2403
lfingers 7.12502
lthumb 20.9817 8.64475
rfemur -23.9586 -1.24368 23.2002
rtibia 23.4846
rfoot 6.93609 -15.3861
rtoes 15.3304
lfemur -55.7195 11.2935 -23.0914
ltibia 71.495
lfoot -33.2749 -22.5641
ltoes 13.3693
3836
root 29.5597 29.4498 -9.4497 -337.212 -78.3958 5.13173
lowerback 31.2739 0.0803995 -0.285785
upperback 13.6289 -1.06527 2.87756
thorax -1.57861 -1.12609 3.70093
lowerneck 6.61423 -4.11912 -5.84027
upperneck 16.2814 -7.0383 7.97912
head 4.26233 -3.54834 3.2962
rclavicle 1.61016e-014 2.66868e-014
rhumerus 1.30861 10.8992 -66.4075
rradius 92.195
rwrist 18.3003
rhand -32.4703 1.15764
rfingers 7.12502
rthumb -5.70282 -28.7456
lclavicle 1.61016e-014 2.66868e-014
lhumerus 9.75422 -19.2535 77.7603
lradius 92.081
lwrist -37.0109
lhand -3.89206 -19.1217
lfingers 7.12502
lthumb 21.8576 9.6638
rfemur -23.5205 -1.18941 23.312
rtibia 22.6695
rfoot 7.10233 -15.4186
rtoes 15.7124
lfemur -56.3265 11.2372 -22.9454
ltibia 72.4343
lfoot -33.7149 -22.7604
ltoes 13.7118
